HIERARCHY
ROOT Hips
{
  OFFSET 130.238 94.6845 276.595
  CHANNELS 6 Xposition Yposition Zposition Zrotation Xrotation Yrotation
  JOINT RightUpLeg
  {
    OFFSET -8.9458 -8.66707 0.101652
    CHANNELS 3 Zrotation Xrotation Yrotation
    JOINT RightLeg
    {
      OFFSET 0 -44.4227 1.3727
      CHANNELS 3 Zrotation Xrotation Yrotation
      JOINT RightFoot
      {
        OFFSET 0.253549 -42.0924 -1.46059
        CHANNELS 3 Zrotation Xrotation Yrotation
        JOINT RightToes
        {
          OFFSET 0.04 -4.41509 8.4991
          CHANNELS 3 Zrotation Xrotation Yrotation
          End Site
          {
            OFFSET -0.08 -0.137448 9.77979
          }
        }
      }
    }
  }
  JOINT Spine
  {
    OFFSET 0 11.8905 0
    CHANNELS 3 Zrotation Xrotation Yrotation
    JOINT Spine1
    {
      OFFSET 0 25.6574 0.127663
      CHANNELS 3 Zrotation Xrotation Yrotation
      JOINT HEad
      {
        OFFSET 0 8.73416 0.011341
        CHANNELS 3 Zrotation Xrotation Yrotation
        End Site
        {
          OFFSET -0.29 12.7742 2.51395
        }
      }
      JOINT LeftShoulder1
      {
        OFFSET 8.99 -0.362252 -0.22
        CHANNELS 3 Zrotation Xrotation Yrotation
        JOINT LeftArm
        {
          OFFSET 10.2827 -0.00338 0.322123
          CHANNELS 3 Zrotation Xrotation Yrotation
          JOINT LeftForeArm
          {
            OFFSET 32.7669 0.099144 -1.42434
            CHANNELS 3 Zrotation Xrotation Yrotation
            JOINT LeftHand
            {
              OFFSET 27.5643 0.085362 1.02216
              CHANNELS 3 Zrotation Xrotation Yrotation
              End Site
              {
                OFFSET 16.7443 -0.6 1.50291
              }
            }
          }
        }
      }
      JOINT RightShoulder
      {
        OFFSET -8.99 -0.362252 -0.22
        CHANNELS 3 Zrotation Xrotation Yrotation
        JOINT RightArm
        {
          OFFSET -10.2827 -0.00338 0.322123
          CHANNELS 3 Zrotation Xrotation Yrotation
          JOINT RightForeArm
          {
            OFFSET -32.8971 0.099144 -1.42434
            CHANNELS 3 Zrotation Xrotation Yrotation
            JOINT RightHand
            {
              OFFSET -27.4921 0.085362 1.02216
              CHANNELS 3 Zrotation Xrotation Yrotation
              End Site
              {
                OFFSET -16.6312 -0.6 1.50291
              }
            }
          }
        }
      }
    }
  }
  JOINT LeftUpLeg
  {
    OFFSET 8.9458 -8.66707 0.101652
    CHANNELS 3 Zrotation Xrotation Yrotation
    JOINT LeftLeg
    {
      OFFSET 0 -44.4227 1.3727
      CHANNELS 3 Zrotation Xrotation Yrotation
      JOINT LeftFoot
      {
        OFFSET -0.253549 -42.0924 -1.46059
        CHANNELS 3 Zrotation Xrotation Yrotation
        JOINT LeftToes
        {
          OFFSET -0.04 -4.41509 8.4991
          CHANNELS 3 Zrotation Xrotation Yrotation
          End Site
          {
            OFFSET 0.08 -0.047448 9.77979
          }
        }
      }
    }
  }
}
MOTION
Frames:	18
Frame Time:	0.0166667
130.238 94.6845 276.595 0.567445 -2.20059 169.024 2.69963 0.515283 18.7135 5.26643 25.6646 5.38295 -0.904695 -12.6736 -0.220368 1.43805 -19.5423 -1.97718 5.51949 1.39687 -1.22944 4.50888 1.55326 -2.39162 -15.4751 17.6188 7.34454 7.95139e-016 0 -1.59028e-015 -47.6677 -60.339 52.4726 -20.4074 15.7783 -24.3993 0.368473 9.90896 -0.00117928 3.81682 0.727389 2.71039 78.7805 7.2256 43.7684 1.01234 13.2747 -1.23292 -0.369625 9.91382 0.00119886 5.30844 -23.6011 0.86135 -4.54363 3.53101 36.1926 -13.0216 -5.46337 -0.205746 -0.575998 0.272098 1.16957 
129.91 94.5373 274.228 0.388794 -1.90852 169.022 1.90213 1.69812 18.3431 5.2733 26.6992 6.60658 -1.87756 -12.675 -0.290146 2.04386 -19.3701 -2.66403 5.6718 1.34796 -1.3398 4.18177 1.69669 -2.37933 -15.1671 17.4462 7.4006 -1.98785e-015 -3.97569e-016 -3.18055e-015 -47.9088 -60.5648 52.4799 -20.2392 15.6905 -24.3592 0.368473 9.90896 -0.00117928 3.61587 0.727357 2.76305 79.0022 7.47199 43.4277 1.01234 13.2747 -1.23292 -0.369625 9.91382 0.00119886 4.83931 -23.7875 3.26203 -5.37157 6.53655 34.5257 -12.2944 -5.00279 -0.141422 -0.343922 -1.78213 0.969803 
129.583 94.5111 271.892 0.0611127 -1.59162 169.039 1.00463 2.8689 18.2127 5.27475 27.6153 7.36616 -2.36485 -12.3516 -0.324486 2.43478 -19.0372 -3.0821 5.57368 1.34635 -1.46971 3.81232 1.86181 -2.37626 -14.9629 17.3049 7.47869 -8.94531e-016 0 -0 -48.0942 -60.722 52.516 -20.1777 15.6532 -24.3108 0.368473 9.90896 -0.00117928 3.31659 0.72728 2.88569 79.2746 7.66027 42.9114 1.01234 13.2747 -1.23292 -0.369625 9.91382 0.00119886 4.15122 -23.9261 5.12179 -5.87242 9.46403 33.0133 -11.461 -3.96313 -0.0312985 -0.120663 -3.35221 0.694319 
129.26 94.8645 269.658 -0.76334 -1.19155 169.124 -0.311988 4.17102 18.8933 5.38046 27.8952 6.63059 -1.36962 -11.083 -0.245135 2.21335 -18.4799 -2.80737 4.64697 1.50137 -1.66739 3.30831 2.12177 -2.39529 -15.0829 17.2652 7.60447 -9.93923e-017 1.59028e-015 -3.18055e-015 -48.1114 -60.6713 52.6681 -20.434 15.7589 -24.1994 0.368473 9.90896 -0.00117928 2.69217 0.729858 3.24104 79.6767 7.67827 41.9122 1.01234 13.2747 -1.23292 -0.369625 9.91382 0.00119886 2.70493 -24.076 6.0469 -5.56972 11.9706 31.0475 -10.2187 -0.713786 0.256845 0.119472 -3.69486 0.215968 
128.93 95.3061 267.43 -1.64024 -0.783435 169.205 -1.6445 5.07385 19.6039 5.59774 28.6991 5.46597 0.0493517 -9.43112 -0.147532 1.64826 -17.2566 -2.05902 3.62814 1.67409 -1.86649 2.77792 2.34396 -2.43465 -15.2825 17.2411 7.78919 -1.98785e-016 1.98785e-015 3.18055e-015 -48.0788 -60.5547 52.7825 -20.802 15.9323 -24.1565 0.368473 9.90896 -0.00117928 2.02947 0.730102 3.62082 80.1505 7.59805 40.6447 1.01234 13.2747 -1.23292 -0.369625 9.91382 0.00119886 1.13335 -24.1052 5.01537 -5.42539 14.1805 30.5807 -9.10821 2.16962 0.508578 0.358417 -3.10123 -0.391713 
128.576 95.6121 265.103 -2.14111 -0.430508 169.229 -2.51681 5.07626 19.7513 6.09087 31.2198 4.66639 0.959222 -7.929 -0.100588 1.04961 -14.8272 -1.33861 3.21946 1.722 -2.01468 2.31295 2.35887 -2.51385 -15.3501 17.1708 8.07284 1.2921e-015 3.97569e-016 -0 -47.987 -60.4161 52.8083 -21.1972 16.1569 -24.3047 0.368473 9.90896 -0.00117928 1.6461 0.730677 3.86933 80.6613 7.40104 39.1776 1.01234 13.2747 -1.23292 -0.369625 9.91382 0.00119886 0.0532142 -23.7208 -0.493287 -6.94765 15.8495 34.764 -8.6595 2.03557 0.496747 0.587197 -1.10762 -1.14181 
128.214 95.8375 262.771 -2.5585 -0.111569 169.185 -3.23753 4.31586 19.2994 6.6086 34.8799 3.99505 2.00862 -6.04343 -0.0991672 -0.348492 -11.4048 0.557029 2.93814 1.76532 -2.11779 1.86894 2.35044 -2.58157 -15.4031 17.0522 8.39416 -1.98785e-016 0 -3.18055e-015 -48.0964 -60.4123 52.5354 -21.4579 16.3459 -24.6187 0.368473 9.90896 -0.00117928 1.22323 0.714869 3.99148 81.2198 7.25498 37.6431 1.01234 13.2747 -1.23292 -0.369625 9.91382 0.00119886 -0.753523 -22.9344 -6.2741 -9.07003 16.972 39.6837 -8.3829 0.743236 0.388544 0.871943 0.761774 -1.90011 
127.836 95.9614 260.505 -3.0591 0.158241 168.921 -4.17471 2.5788 17.9806 6.9363 39.6247 3.14902 3.83342 -3.35119 -0.15973 -4.80354 -6.70658 6.22424 2.55384 1.89129 -2.12267 1.46658 2.53259 -2.54607 -15.5523 16.7909 8.73426 -5.96354e-016 1.59028e-015 3.18055e-015 -48.9051 -60.8339 51.5803 -21.2971 16.3794 -25.2222 0.368473 9.90896 -0.00117928 0.230889 0.644158 3.90951 81.9303 7.6258 36.2825 1.01234 13.2747 -1.23292 -0.369625 9.91382 0.00119886 -1.53432 -22.1864 -8.46559 -10.5815 18.0991 42.1435 -7.90266 -0.632449 0.282979 1.22332 0.604953 -2.60185 
127.488 95.9885 258.263 -3.5903 0.424391 168.798 -4.99637 0.304085 15.9786 6.92302 45.0677 3.21424 5.55889 -0.0553365 -0.286397 -9.1924 -1.6618 10.84 2.01405 2.05625 -2.154 1.00357 2.64594 -2.54834 -15.6029 16.6035 9.00579 -1.98785e-016 1.59028e-015 3.18055e-015 -49.762 -61.3013 50.3371 -21.0142 16.3396 -25.7854 0.368473 9.90896 -0.00117928 -0.380638 0.586539 3.7158 82.5689 7.68466 34.8243 1.01234 13.2747 -1.23292 -0.369625 9.91382 0.00119886 -2.33299 -21.4166 -8.8656 -11.7312 19.3414 42.9602 -7.46632 -2.39062 0.158941 1.45081 0.0259061 -3.04727 
127.226 95.9023 255.996 -4.15101 0.790379 169.309 -5.3613 -2.01177 12.9737 5.10521 50.8612 6.72904 6.38436 4.39299 -0.540349 -8.37491 3.50335 9.72523 1.12619 2.25312 -2.36127 0.346647 2.42963 -2.74217 -15.3186 16.8164 9.03462 3.97569e-016 1.59028e-015 -0 -49.9234 -61.4704 49.2323 -20.8018 16.2451 -25.9206 0.368473 9.90896 -0.00117928 0.572306 0.617905 3.42408 82.74 6.32058 32.9761 1.01234 13.2747 -1.23292 -0.369625 9.91382 0.00119886 -3.26598 -20.4941 -7.5224 -12.2676 21.0624 41.1983 -7.20293 -4.62439 0.0224131 1.35582 0.263928 -2.86525 
127.007 95.7456 253.798 -4.7807 1.07217 169.906 -5.64923 -4.69426 10.1103 1.86068 56.5044 11.5083 6.7567 8.16066 -0.776133 -4.15533 7.2934 5.54064 0.0850326 2.45907 -2.617 -0.39262 2.10202 -2.99735 -14.9514 17.0056 9.06598 -1.32417e-031 1.19271e-015 6.36111e-015 -49.9772 -61.5522 47.9687 -20.6912 16.1792 -25.9279 0.368473 9.90896 -0.00117928 1.86312 0.676256 3.19232 82.6963 4.58765 31.1297 1.01234 13.2747 -1.23292 -0.369625 9.91382 0.00119886 -4.3102 -19.6015 -5.78663 -12.4945 22.7806 38.8777 -7.08908 -6.8768 -0.110569 1.17417 0.504803 -2.50668 
126.811 95.5334 251.777 -5.54826 1.06411 170.155 -5.8957 -7.95428 8.61982 -0.475762 61.886 14.3765 6.78123 9.24067 -0.831987 2.90602 7.01896 -1.95055 -1.02008 2.66309 -2.84552 -1.16739 1.77775 -3.24562 -14.6878 16.8063 9.36214 -5.96354e-016 -7.95139e-016 -0 -50.2614 -61.6483 46.4328 -20.7763 16.2449 -26.0501 0.368473 9.90896 -0.00117928 2.52176 0.722952 3.25434 82.7661 3.42057 29.5516 1.01234 13.2747 -1.23292 -0.369625 9.91382 0.00119886 -5.3208 -19.0168 -5.22774 -13.0728 23.9875 38.147 -7.10307 -8.64139 -0.211653 1.10595 0.193057 -2.3387 
126.627 95.3324 249.84 -6.31266 0.925341 170.211 -6.0321 -11.497 7.95889 -2.55092 66.7384 15.8108 6.46309 8.70621 -0.782253 9.02664 5.19102 -8.91311 -2.07134 2.8231 -3.04056 -1.90829 1.5069 -3.45508 -14.4791 16.3667 9.6943 0 0 -3.18055e-015 -50.848 -61.7085 44.4278 -21.0592 16.3957 -26.0714 0.368473 9.90896 -0.00117928 2.95776 0.763627 3.39625 82.8307 2.40545 28.1035 1.01234 13.2747 -1.23292 -0.369625 9.91382 0.00119886 -6.33557 -18.4745 -5.07836 -13.5438 24.8441 37.9417 -7.34005 -10.1599 -0.309545 1.07688 -0.209099 -2.2412 
126.425 95.2366 247.94 -6.98622 0.742121 170.056 -6.03074 -15.1657 8.0952 -3.73505 70.6443 13.9994 5.78889 6.543 -0.623774 10.4029 3.80811 -10.5246 -2.86699 2.87367 -3.18315 -2.57611 1.4051 -3.56488 -14.3243 15.6329 9.91297 -5.96354e-016 1.59028e-015 -3.18055e-015 -51.9048 -61.6012 41.6683 -21.7154 16.6779 -25.7793 0.368473 9.90896 -0.00117928 3.18444 0.79153 3.51632 82.886 1.49571 26.7634 1.01234 13.2747 -1.23292 -0.369625 9.91382 0.00119886 -7.43235 -17.7648 -5.17242 -13.5523 25.2721 37.9636 -7.95289 -11.4751 -0.424666 1.09076 -0.370619 -2.25571 
126.244 95.1792 246.054 -7.49793 0.530835 169.777 -5.70879 -18.7702 8.78004 -2.90125 73.5827 9.63227 5.03108 4.00481 -0.44929 10.1614 2.51548 -10.2959 -3.573 2.87409 -3.23535 -3.02487 1.38987 -3.59343 -14.2771 14.8486 10.0485 -1.98785e-016 1.59028e-015 3.18055e-015 -53.43 -61.5697 38.3348 -22.3279 16.9187 -25.4045 0.368473 9.90896 -0.00117928 3.42247 0.805295 3.51182 82.8286 0.462243 25.493 1.01234 13.2747 -1.23292 -0.369625 9.91382 0.00119886 -8.4404 -16.9604 -5.31181 -13.2527 25.5208 37.9949 -8.76 -12.6773 -0.554498 1.09779 -0.452835 -2.26365 
126.132 95.1103 244.152 -7.70538 0.34482 169.396 -4.92249 -22.1111 9.89236 -0.714372 75.4225 4.65558 4.54774 2.64473 -0.366552 10.3261 1.81265 -10.5008 -4.35426 2.87107 -3.09049 -3.00154 1.45893 -3.50349 -14.4648 14.2324 10.057 1.98785e-016 -7.95139e-016 -3.18055e-015 -55.6943 -61.8915 34.297 -22.4947 16.9392 -25.1116 0.368473 9.90896 -0.00117928 3.92045 0.799054 3.19899 82.4896 -1.00867 24.2788 1.01234 13.2747 -1.23292 -0.369625 9.91382 0.00119886 -9.16988 -16.0931 -5.14613 -12.6418 25.9291 37.623 -9.67437 -13.9188 -0.711494 1.03633 -0.514013 -2.12834 
126.032 95.0725 242.217 -7.73035 0.158713 169.087 -3.87417 -25.0907 10.9561 1.51072 76.095 0.367374 3.97636 1.55185 -0.309351 9.7511 0.984937 -9.93804 -5.00909 2.83677 -2.93596 -2.79339 1.48749 -3.40109 -14.6854 13.8009 10.0089 -1.98785e-016 0 3.18055e-015 -58.5342 -62.3203 29.7378 -22.3237 16.7978 -24.8894 0.368473 9.90896 -0.00117928 4.60762 0.779464 2.71917 81.9473 -2.76851 23.071 1.01234 13.2747 -1.23292 -0.369625 9.91382 0.00119886 -9.8154 -15.0707 -4.98458 -11.7844 26.1779 37.1397 -10.5702 -15.0565 -0.87238 0.950943 -0.532509 -1.9458 
125.886 95.1004 240.209 -7.65234 -0.05543 169.037 -2.92767 -27.5931 11.2758 1.31507 75.5982 -0.168514 2.96007 0.376357 -0.240397 7.36083 -0.716972 -7.48647 -5.32636 2.75013 -2.95688 -2.62844 1.32877 -3.39393 -14.7843 13.6316 9.98219 0 1.59028e-015 -0 -61.8311 -62.7989 24.8785 -21.7408 16.4792 -24.8485 0.368473 9.90896 -0.00117928 5.45325 0.745578 2.11697 81.2632 -4.71575 21.8132 1.01234 13.2747 -1.23292 -0.369625 9.91382 0.00119886 -10.5785 -13.7593 -5.07391 -10.6429 25.9345 36.6814 -11.1941 -16.0151 -1.01107 0.796119 -0.398523 -1.63469 
